<svg width="24" height="24" viewBox="0 0 24 24" fill="none" xmlns="http://www.w3.org/2000/svg">
    <rect width="24" height="24" rx="6" fill="#121212"/>
    <path d="M7.36841 15.2015C6.67805 15.2015 6.11841 15.7612 6.11841 16.4515C6.11841 17.1419 6.67805 17.7015 7.36841 17.7015V15.2015ZM15.862 7.0671L16.0101 5.82591L15.862 7.0671ZM18.434 15.5706L19.2849 16.4863L19.2849 16.4863L18.434 15.5706ZM13.1734 15.3326L12.1203 14.6592L10.7735 16.7654L11.8266 17.4388L13.1734 15.3326ZM9.86486 14.2139L8.66024 13.8802L9.86486 14.2139ZM15.7138 8.30828C17.4938 8.52079 18.3872 9.60964 18.6608 10.8944C18.9542 12.2718 18.5105 13.7931 17.583 14.655L19.2849 16.4863C20.9293 14.9581 21.5609 12.5095 21.106 10.3736C20.6313 8.14511 18.9528 6.17722 16.0101 5.82591L15.7138 8.30828ZM17.583 14.655C16.0619 16.0686 14.0644 15.9023 13.1734 15.3326L11.8266 17.4388C13.6384 18.5974 16.8952 18.707 19.2849 16.4863L17.583 14.655ZM7.36841 17.7015C8.42495 17.7015 9.29669 17.3523 9.9484 16.6842C10.555 16.0624 10.8709 15.2644 11.0695 14.5477L8.66024 13.8802C8.50521 14.4398 8.33239 14.7606 8.15883 14.9385C8.03042 15.0701 7.83072 15.2015 7.36841 15.2015V17.7015ZM11.0695 14.5477C11.2986 13.7208 11.4295 12.7466 11.5641 11.9513C11.709 11.0958 11.8673 10.3663 12.1323 9.77134C12.3852 9.20359 12.7084 8.8192 13.1669 8.57837C13.6431 8.32826 14.4173 8.1535 15.7138 8.30828L16.0101 5.82591C14.3967 5.63328 13.0694 5.80578 12.0045 6.36506C10.9219 6.93362 10.2643 7.82076 9.84859 8.75417C9.44497 9.66036 9.24686 10.6617 9.09921 11.5341C8.94134 12.4667 8.84383 13.2175 8.66024 13.8802L11.0695 14.5477Z" fill="#F5F5F5"/>
    <path d="M4 7V16.4546H7.29542" stroke="#F5F5F5" stroke-width="2.5" stroke-linecap="round"/>
</svg>
